/* XPM */
const static char * cursor_zoom[] = {
"32 32 2 1",
" 	c #000000",
".	c #FFFFFF",
"................................",
"................................",
"................................",
"........ .......................",
"........ .......................",
"........ .......................",
"........ .......................",
"........ .......................",
"...     .     ..................",
"........ .......................",
"........ .......................",
"........ .........    ..........",
"........ .......  ....  ........",
"........ ...... ........ .......",
"............... ........ .......",
".............. .......... ......",
".............. .......... ......",
".............. .......... ......",
".............. .......... ......",
"............... ........ .......",
"............... ........ .......",
"................  ....    ......",
"..................    ..   .....",
".........................   ....",
"..........................   ...",
"...........................   ..",
"............................ ...",
"................................",
"................................",
"................................",
"................................",
"................................"};
