/* XPM */
const static char * cursor_connect2_mask[] = {
"32 32 2 1",
" 	c #000000",
".	c #FFFFFF",
"................................",
"................................",
"................................",
".......   ......................",
".......   ......................",
".......   ......................",
".......   ......................",
"...           ..................",
"...     .     ..................",
"...           ..................",
".......   .......     ..........",
".......   .....         ........",
".......   ....           .......",
".......   ...             ......",
"............     .....     .....",
"...........       ......    ....",
"...........        .....    ....",
"..........    .     .....    ...",
"..........    ..     ....    ...",
"..........    ...     ...    ...",
"..........    ....     ..    ...",
"..........    .....     .    ...",
"...........    .....        ....",
"...........    ......       ....",
"............     .....     .....",
".............             ......",
"..............           .......",
"...............         ........",
".................     ..........",
"................................",
"................................",
"................................"};
