/* XPM */
const static char * cursor_connect1[] = {
"32 32 2 1",
" 	c #000000",
".	c #FFFFFF",
"................................",
"................................",
"................................",
"................................",
"........ .......................",
"........ .......................",
"........ .......................",
"........ .......................",
"....    .    ...................",
"........ .......................",
"........ .......................",
"........ .......................",
"........ .......................",
".................... ...........",
".................... ...........",
".................... ...........",
".................... ...........",
"..........           ...........",
".......... .....................",
".......... .....................",
".......... .....................",
"........     ...................",
".........   ....................",
".......... .....................",
"................................",
"................................",
"................................",
"................................",
"................................",
"................................",
"................................",
"................................"};
